<?xml version="1.0" encoding="utf-8"?>
<!-- Generator: Adobe Illustrator 23.1.0, SVG Export Plug-In . SVG Version: 6.00 Build 0)  -->
<svg version="1.1" id="Layer_1" xmlns="http://www.w3.org/2000/svg" xmlns:xlink="http://www.w3.org/1999/xlink" x="0px" y="0px"
	 viewBox="0 0 402 46.8" style="enable-background:new 0 0 402 46.8;" xml:space="preserve">
<style type="text/css">
	.st0{fill:#1068B2;}
	.st1{fill-rule:evenodd;clip-rule:evenodd;fill:#1068B2;}
</style>
<g>
	<g>
		<polygon class="st0" points="0,29.7 15.5,29.7 15.5,34.4 11.1,34.4 11.1,45.7 4.6,45.7 4.6,34.4 0,34.4 		"/>
		<polygon class="st0" points="23.3,36.1 20.1,45.7 13.9,45.7 20,29.7 26.7,29.7 32.9,45.7 26.7,45.7 		"/>
		<polygon class="st0" points="31.5,29.7 46.9,29.7 46.9,34.4 42.5,34.4 42.5,45.7 36,45.7 36,34.4 31.5,34.4 		"/>
		<polygon class="st0" points="54.8,36.1 51.5,45.7 45.3,45.7 51.4,29.7 58.1,29.7 64.3,45.7 58.1,45.7 		"/>
		<polygon class="st0" points="75.3,29.7 75.3,36.1 82,36.1 82,29.7 85,29.7 85,45.7 82,45.7 82,38.6 75.3,38.6 75.3,45.7 
			72.4,45.7 72.4,29.7 		"/>
		<path class="st0" d="M102.5,37.5c0,5.4-3.2,8.4-7.7,8.4s-7.4-3.4-7.4-8.1c0-4.9,3.1-8.4,7.6-8.4C99.7,29.4,102.5,33,102.5,37.5
			 M90.6,37.7c0,3.2,1.6,5.9,4.4,5.9s4.4-2.6,4.4-6c0-3-1.5-5.9-4.4-5.9C92.1,31.7,90.6,34.5,90.6,37.7"/>
		<path class="st0" d="M107.9,29.7V39c0,3.1,1.3,4.6,3.3,4.6c2.1,0,3.4-1.4,3.4-4.6v-9.3h2.9v9.1c0,4.9-2.5,7.1-6.4,7.1
			c-3.7,0-6.1-2.1-6.1-7.1v-9.2L107.9,29.7L107.9,29.7z"/>
		<path class="st0" d="M120.7,42.5c0.9,0.5,2.4,1,3.9,1c1.9,0,2.9-0.9,2.9-2.2c0-1.2-0.8-1.9-2.8-2.7c-2.6-0.9-4.3-2.3-4.3-4.6
			c0-2.6,2.2-4.6,5.6-4.6c1.7,0,3,0.4,3.8,0.8l-0.7,2.3c-0.6-0.3-1.7-0.8-3.2-0.8c-1.9,0-2.7,1-2.7,1.9c0,1.2,0.9,1.8,3.1,2.6
			c2.8,1,4.1,2.4,4.1,4.7c0,2.6-1.9,4.8-6.1,4.8c-1.7,0-3.4-0.5-4.3-1L120.7,42.5z"/>
		<rect x="133.1" y="29.7" class="st0" width="2.9" height="16"/>
		<path class="st0" d="M139.4,45.7v-16h3.3l4.1,6.9c1.1,1.8,2,3.6,2.7,5.4l0,0c-0.2-2.1-0.3-4.2-0.3-6.6v-5.6h2.7v16h-3l-4.2-7
			c-1-1.7-2.1-3.7-2.9-5.5h-0.1c0.1,2.1,0.1,4.2,0.1,6.8v5.7h-2.4V45.7z"/>
		<path class="st0" d="M168.2,44.9c-1,0.4-3,0.9-5.1,0.9c-2.7,0-4.7-0.7-6.3-2.1c-1.4-1.4-2.3-3.5-2.2-5.9c0-5.1,3.6-8.3,8.9-8.3
			c2,0,3.5,0.4,4.2,0.8l-0.6,2.3c-0.9-0.4-1.9-0.7-3.6-0.7c-3.4,0-5.8,2-5.8,5.7c0,3.6,2.2,5.8,5.6,5.8c1,0,1.8-0.1,2.2-0.3v-4h-2.8
			v-2.3h5.6L168.2,44.9L168.2,44.9z"/>
		<path class="st0" d="M172,22.2c0.6,0,1.2,0.2,1.7,0.5c0.6,0.3,1,0.7,1.3,1.3c0.3,0.6,0.5,1.2,0.5,1.8c0,0.6-0.2,1.2-0.5,1.8
			c-0.3,0.6-0.7,1-1.3,1.3s-1.1,0.5-1.8,0.5c-0.6,0-1.2-0.2-1.8-0.5s-1-0.7-1.3-1.3c-0.3-0.6-0.5-1.1-0.5-1.8c0-0.6,0.2-1.2,0.5-1.8
			c0.3-0.6,0.8-1,1.3-1.3C170.9,22.3,171.4,22.2,172,22.2 M172,22.8c-0.5,0-1,0.1-1.5,0.4s-0.8,0.6-1.1,1.1s-0.4,1-0.4,1.5
			s0.1,1,0.4,1.5c0.3,0.5,0.6,0.8,1.1,1.1c0.5,0.3,1,0.4,1.5,0.4s1-0.1,1.5-0.4s0.8-0.6,1.1-1.1s0.4-1,0.4-1.5s-0.1-1-0.4-1.5
			c-0.3-0.5-0.6-0.8-1.1-1.1C173,22.9,172.5,22.8,172,22.8 M170.5,27.7v-3.8h1.3c0.4,0,0.8,0,1,0.1s0.4,0.2,0.5,0.4s0.2,0.4,0.2,0.6
			c0,0.3-0.1,0.5-0.3,0.7s-0.5,0.3-0.8,0.3c0.1,0.1,0.2,0.1,0.3,0.2c0.2,0.2,0.3,0.4,0.6,0.8l0.5,0.7h-0.7l-0.3-0.6
			c-0.3-0.5-0.5-0.8-0.6-0.9s-0.3-0.1-0.5-0.1h-0.4v1.6C171.3,27.7,170.5,27.7,170.5,27.7z M171.1,25.5h0.7c0.4,0,0.6-0.1,0.7-0.2
			c0.1-0.1,0.2-0.2,0.2-0.4c0-0.1,0-0.2-0.1-0.3c-0.1-0.1-0.1-0.2-0.3-0.2c-0.1,0-0.3-0.1-0.6-0.1H171v1.2H171.1z"/>
	</g>
	<g>
		<path class="st1" d="M27.1,0c2,5.5,4.3,10.7,6.2,16.2H27c-1-3.3-2.2-6.3-3.2-9.6c-1.1,3.1-2.3,6.3-3.2,9.6h-6.3
			c2-5.5,4-11,6.2-16.2H27.1z"/>
		<path class="st1" d="M59,0c2,5.5,4.3,10.7,6.2,16.2h-6.3c-1-3.3-2.2-6.3-3.2-9.6c-1.1,3.1-2.3,6.3-3.3,9.6H46c2-5.5,4-11,6.2-16.2
			H59z"/>
		<polygon class="st1" points="0.1,0 0.1,4.8 4.7,4.8 4.7,16.2 11.1,16.2 11.1,4.8 11.3,4.8 11.3,4.8 15.7,4.8 15.7,0 		"/>
		<polygon class="st1" points="32,0 32,4.8 36.5,4.8 36.5,16.2 43,16.2 43,4.8 43.2,4.8 43.2,4.8 47.5,4.8 47.5,0 		"/>
		<path class="st0" d="M75.9,0.9c1.1-0.2,2.7-0.3,4.4-0.3c2.3,0,3.8,0.4,4.9,1.2c0.9,0.7,1.4,1.8,1.4,3.1c0,2-1.4,3.4-2.9,3.9v0.1
			c1.1,0.4,1.8,1.5,2.2,3c0.5,1.9,0.9,3.7,1.2,4.3h-3c-0.2-0.5-0.6-1.7-1.1-3.6c-0.4-2-1.2-2.7-2.8-2.7h-1.4v6.3h-2.9
			C75.9,16.2,75.9,0.9,75.9,0.9z M78.7,7.7h1.7c1.9,0,3.2-1,3.2-2.5c0-1.7-1.2-2.5-3.1-2.5c-0.9,0-1.5,0.1-1.8,0.2
			C78.7,2.9,78.7,7.7,78.7,7.7z"/>
		<polygon class="st0" points="98.6,9.3 92.6,9.3 92.6,13.8 99.3,13.8 99.3,16.1 89.8,16.1 89.8,0.7 98.9,0.7 98.9,3 92.6,3 92.6,7 
			98.6,7 		"/>
		<path class="st0" d="M105.5,11.8l-1.4,4.4h-3l5.1-15.4h3.7l5.1,15.4h-3l-1.4-4.4C110.6,11.8,105.5,11.8,105.5,11.8z M110,9.6
			l-1.2-3.8c-0.3-0.9-0.6-2-0.8-2.9l0,0c-0.2,0.9-0.5,2-0.7,2.9L106,9.6H110z"/>
		<polygon class="st0" points="117.8,0.7 120.7,0.7 120.7,13.8 127.2,13.8 127.2,16.1 117.8,16.1 		"/>
		<polygon class="st0" points="130.7,3.1 126.2,3.1 126.2,0.7 138.1,0.7 138.1,3.1 133.5,3.1 133.5,16.1 130.7,16.1 		"/>
		<path class="st0" d="M144.5,16.1V9.7l-5-9h3.3l1.9,4c0.5,1.1,0.9,2,1.4,3.1h0.1c0.4-1,0.8-1.9,1.4-3.1l1.9-4h3.3l-5.2,8.9v6.5
			C147.6,16.1,144.5,16.1,144.5,16.1z"/>
		<path class="st0" d="M163.5,11.8l-1.4,4.4h-3l5-15.4h3.7l5.1,15.4h-3.1l-1.4-4.4C168.4,11.8,163.5,11.8,163.5,11.8z M168,9.6
			l-1.2-3.8c-0.3-0.9-0.6-2-0.8-2.9l0,0c-0.2,0.9-0.5,2-0.7,2.9l-1.2,3.8H168z"/>
		<path class="st0" d="M175.8,16.1V0.7h3.3l4.1,6.6c1,1.7,2,3.5,2.7,5.2l0,0c-0.2-2.1-0.3-4.1-0.3-6.4V0.7h2.7v15.4h-3l-4.1-6.8
			c-1-1.7-2.1-3.6-2.8-5.3h-0.1c0.1,2,0.2,4,0.2,6.6v5.5H175.8z"/>
		<path class="st0" d="M192.1,0.9c1.3-0.2,2.9-0.3,4.6-0.3c2.9,0,5,0.6,6.4,1.8c1.5,1.2,2.5,3.1,2.5,5.7c0,2.7-1,4.8-2.5,6.1
			c-1.6,1.4-4.1,2.1-7.1,2.1c-1.7,0-2.9-0.1-3.9-0.2V0.9z M195,14c0.4,0.1,1,0.1,1.6,0.1c3.7,0,6-2,6-5.9c0-3.4-2-5.4-5.6-5.4
			c-0.9,0-1.6,0.1-2,0.2V14z"/>
		<rect x="214.1" y="0.7" class="st0" width="2.9" height="15.4"/>
		<path class="st0" d="M220.8,16.1V0.7h3.3l4.1,6.6c1,1.7,1.9,3.5,2.7,5.2l0,0c-0.2-2.1-0.3-4.1-0.3-6.4V0.7h2.7v15.4h-3l-4.1-6.8
			c-1-1.7-2.1-3.6-2.8-5.3h-0.1c0.1,2,0.1,4,0.1,6.6v5.5H220.8z"/>
		<polygon class="st0" points="237.2,0.7 246.3,0.7 246.3,3 240.1,3 240.1,7.3 245.9,7.3 245.9,9.6 240.1,9.6 240.1,16.1 
			237.2,16.1 		"/>
		<path class="st0" d="M249.7,0.9c1.1-0.2,2.7-0.3,4.3-0.3c2.3,0,3.8,0.4,4.9,1.2c0.9,0.7,1.4,1.8,1.4,3.1c0,2-1.4,3.4-2.9,3.9v0.1
			c1.1,0.4,1.8,1.5,2.2,3c0.5,1.9,0.9,3.7,1.2,4.3h-3c-0.2-0.5-0.6-1.7-1.1-3.6c-0.4-2-1.2-2.7-2.8-2.7h-1.5v6.3h-2.9V0.9H249.7z
			 M252.5,7.7h1.7c1.9,0,3.1-1,3.1-2.5c0-1.7-1.2-2.5-3.1-2.5c-0.9,0-1.5,0.1-1.8,0.2v4.8H252.5z"/>
		<path class="st0" d="M266.9,11.8l-1.4,4.4h-3l5.1-15.4h3.7l5.1,15.4h-3.1l-1.4-4.4C271.9,11.8,266.9,11.8,266.9,11.8z M271.4,9.6
			l-1.2-3.8c-0.3-0.9-0.6-2-0.8-2.9l0,0c-0.2,0.9-0.5,2-0.8,2.9l-1.2,3.8H271.4z"/>
		<path class="st0" d="M279.1,13.1c1,0.5,2.4,1,3.8,1c1.8,0,2.9-0.9,2.9-2.1s-0.8-1.9-2.8-2.6c-2.6-0.9-4.3-2.3-4.3-4.5
			c0-2.5,2.1-4.4,5.6-4.4c1.7,0,3,0.4,3.8,0.8l-0.7,2.3c-0.6-0.3-1.7-0.7-3.1-0.7c-1.8,0-2.6,1-2.6,1.8c0,1.2,0.9,1.7,3,2.5
			c2.7,1,4.1,2.4,4.1,4.6c0,2.5-1.9,4.6-6,4.6c-1.7,0-3.4-0.5-4.3-1L279.1,13.1z"/>
		<polygon class="st0" points="294.9,3.1 290.4,3.1 290.4,0.7 302.3,0.7 302.3,3.1 297.8,3.1 297.8,16.1 294.9,16.1 		"/>
		<path class="st0" d="M304.7,0.9c1.1-0.2,2.7-0.3,4.3-0.3c2.3,0,3.8,0.4,4.8,1.2c0.9,0.7,1.4,1.8,1.4,3.1c0,2-1.4,3.4-2.9,3.9v0.1
			c1.1,0.4,1.8,1.5,2.2,3c0.5,1.9,0.9,3.7,1.2,4.3h-3c-0.2-0.5-0.6-1.7-1-3.6c-0.4-2-1.2-2.7-2.8-2.7h-1.4v6.3h-2.9L304.7,0.9
			L304.7,0.9z M307.6,7.7h1.7c1.9,0,3.2-1,3.2-2.5c0-1.7-1.2-2.5-3.1-2.5c-0.9,0-1.5,0.1-1.8,0.2L307.6,7.7L307.6,7.7z"/>
		<path class="st0" d="M321.4,0.7v9c0,3,1.3,4.4,3.2,4.4c2.1,0,3.3-1.4,3.3-4.4v-9h2.9v8.8c0,4.8-2.5,6.9-6.3,6.9c-3.6,0-6-2-6-6.8
			V0.7H321.4z"/>
		<path class="st0" d="M345.9,15.7c-0.7,0.3-2.2,0.7-4.1,0.7c-5,0-8-3.1-8-7.8c0-5.1,3.6-8.1,8.4-8.1c1.9,0,3.3,0.4,3.8,0.7
			l-0.6,2.2c-0.7-0.3-1.8-0.6-3.1-0.6c-3.2,0-5.5,2-5.5,5.7c0,3.4,2,5.6,5.5,5.6c1.2,0,2.4-0.2,3.1-0.6L345.9,15.7z"/>
		<polygon class="st0" points="352.5,3.1 348,3.1 348,0.7 359.9,0.7 359.9,3.1 355.3,3.1 355.3,16.1 352.5,16.1 		"/>
		<path class="st0" d="M365.2,0.7v9c0,3,1.3,4.4,3.2,4.4c2.1,0,3.3-1.4,3.3-4.4v-9h2.9v8.8c0,4.8-2.5,6.9-6.3,6.9c-3.7,0-6-2-6-6.8
			V0.7H365.2z"/>
		<path class="st0" d="M378.4,0.9c1.1-0.2,2.7-0.3,4.3-0.3c2.3,0,3.8,0.4,4.9,1.2c0.9,0.7,1.4,1.8,1.4,3.1c0,2-1.4,3.4-2.9,3.9v0.1
			c1.1,0.4,1.8,1.5,2.2,3c0.5,1.9,0.9,3.7,1.2,4.3h-3c-0.2-0.5-0.6-1.7-1.1-3.6c-0.4-2-1.2-2.7-2.8-2.7h-1.5v6.3h-2.8L378.4,0.9
			L378.4,0.9z M381.3,7.7h1.7c2,0,3.2-1,3.2-2.5c0-1.7-1.2-2.5-3.1-2.5c-0.9,0-1.5,0.1-1.8,0.2L381.3,7.7L381.3,7.7z"/>
		<polygon class="st0" points="401.1,9.3 395.2,9.3 395.2,13.8 401.8,13.8 401.8,16.1 392.3,16.1 392.3,0.7 401.5,0.7 401.5,3 
			395.2,3 395.2,7 401.1,7 		"/>
	</g>
</g>
</svg>
