<svg id="Layer_1" data-name="Layer 1" xmlns="http://www.w3.org/2000/svg" xmlns:xlink="http://www.w3.org/1999/xlink" viewBox="0 0 265.11 256.01"><defs><style>.cls-1{fill:none;}.cls-2{clip-path:url(#clip-path);}.cls-3,.cls-4{fill:#e74b37;}.cls-4{fill-rule:evenodd;}</style><clipPath id="clip-path" transform="translate(0 0)"><rect class="cls-1" width="265.11" height="256.01"/></clipPath></defs><title>PhoneChhodoDilJodo</title><g class="cls-2"><path class="cls-3" d="M240.05,111.52s-2.93-4.15,0-7.49c3.56-4,5.39,2.66,5.39,2.66s2.36-4.85,5.21-4.18,3.22,3.84.71,7.49c-2.14,3.1-7.67,7.08-7.67,7.08Z" transform="translate(0 0)"/><path class="cls-3" d="M156.18,167.39s6.14-2.34,4.73-6.42c-1.67-4.82-6.18-.67-6.18-.67s.71-4.71-2.23-5.58c-2.36-.7-4.61.84-4.63,5.17,0,2.77,1.25,7,1.88,8.91a1,1,0,0,0,1.37.64Z" transform="translate(0 0)"/><path class="cls-3" d="M19.64,87.08c-4.31.17-10.18-3.77-13.82-7.68A22,22,0,0,1,0,64.72,37.43,37.43,0,0,1,1.86,52.11a46,46,0,0,1,6.65-13,59.83,59.83,0,0,1,11-11.56A54.33,54.33,0,0,1,35.11,19,65.53,65.53,0,0,1,55,15.24q15.76-.62,26.46,7c7.13,5.1,12.77,14.18,13.12,23.13a30.63,30.63,0,0,1-4.27,17.31A32.2,32.2,0,0,1,78,74.64a36.91,36.91,0,0,1-16.52,4.54,4.4,4.4,0,0,1-4.66-2.89q-.75-1.76.27-1.8c7.71-.3,16.92-2,21.65-7.86C102,37.82,71.9,18.61,48.53,23c-45.8,8.56-43,54.75-26.27,56.3,3.08.29,5-1.2,7.37-4.32S34.05,66.05,34,63.49c0-.85.45-1,1.46-.31a4.52,4.52,0,0,1,2.32,4.13q.24,6.14-5,12.8t-13.08,7m2.73,31.41c-2.82,1-5.1,1-7.41-1.66s-3.53-5.24-3.63-7.86a7.44,7.44,0,0,1,.3-2.64c.25-.7.56-1.07.95-1.08.08,0,.36.2.84.62a2.19,2.19,0,0,0,1.54.6,13.57,13.57,0,0,0,4.28-.83,14.68,14.68,0,0,0,4.65-3.33,36.4,36.4,0,0,0,5.43-7,110.5,110.5,0,0,0,6.33-12.45c2.4-5.34,16.48-53.52,35.12-54.24,1.78-.07,2.93.59,3.45,2,.34.78.24,1.15-.3,1.2-4.63.42-10.78,6.71-14.74,12.53C48.14,60.52,43,111,22.37,118.49" transform="translate(0 0)"/><path class="cls-3" d="M134.76,100.9q-5.17,0-7.76-3.54t-2.59-10.2a30.16,30.16,0,0,1,3-12.78A29.62,29.62,0,0,1,135.17,64Q140,59.91,145,59.9q5.35,0,8,3.59a15.15,15.15,0,0,1,2.68,9.3q0,7.93-5,16.28,5,1.16,11.25-10.78c.12-.28.28-.32.46-.11a26.25,26.25,0,0,1,1.9,2.33.8.8,0,0,1,0,.74c-.6,1.12-1.15,2.09-1.63,2.9s-1.09,1.76-1.82,2.86a20.09,20.09,0,0,1-2.08,2.69,27.65,27.65,0,0,1-2.32,2.17,9,9,0,0,1-2.59,1.58,8,8,0,0,1-2.86.48,7.25,7.25,0,0,1-3.13-.74q-6.25,7.71-13.16,7.71M146,64.66c-1.58,0-3.44,1.26-5.59,3.8a35.51,35.51,0,0,0-5.67,10,32.51,32.51,0,0,0-2.45,11.94,11.77,11.77,0,0,0,.81,4.7c.55,1.24,1.28,1.85,2.18,1.85q3.45,0,7.63-6.66a3.82,3.82,0,0,1-.45-2,7,7,0,0,1,1.4-4.18,4.63,4.63,0,0,1,3-2.16A32.39,32.39,0,0,0,149,71q0-6.34-3-6.34" transform="translate(0 0)"/><path class="cls-3" d="M120.67,144.27a5.7,5.7,0,0,1-4.94-2.26,10.85,10.85,0,0,1-1.65-6.49,19.14,19.14,0,0,1,1.88-8.13,18.92,18.92,0,0,1,5-6.63,9.72,9.72,0,0,1,6.27-2.59,6,6,0,0,1,5.11,2.29,9.62,9.62,0,0,1,1.71,5.92,20.17,20.17,0,0,1-3.18,10.36q3.18.73,7.16-6.87c.08-.17.18-.2.29-.06a14.22,14.22,0,0,1,1.22,1.48.55.55,0,0,1,0,.47c-.39.72-.74,1.33-1,1.85s-.7,1.12-1.16,1.81a12.15,12.15,0,0,1-1.33,1.72,16.66,16.66,0,0,1-1.47,1.38,5.92,5.92,0,0,1-1.65,1,5.18,5.18,0,0,1-1.82.3,4.61,4.61,0,0,1-2-.47q-4,4.9-8.38,4.91m7.17-23.07c-1,0-2.19.8-3.56,2.42a22.5,22.5,0,0,0-3.61,6.39,20.78,20.78,0,0,0-1.56,7.6,7.36,7.36,0,0,0,.52,3c.35.79.81,1.18,1.39,1.18q2.19,0,4.85-4.24a2.45,2.45,0,0,1-.29-1.28,4.44,4.44,0,0,1,.9-2.65,2.93,2.93,0,0,1,1.93-1.38,20.65,20.65,0,0,0,1.33-7c0-2.69-.63-4-1.9-4" transform="translate(0 0)"/><path class="cls-3" d="M180.31,84.34a19.59,19.59,0,0,1,.18-5,82,82,0,0,1,2.37-8.74q3.3-12,.44-12.17-1.71.18-4.3,3.14a31.86,31.86,0,0,0-4.91,8.23l-6.87,22.73a.88.88,0,0,1-.72.68l-6.82.78a.4.4,0,0,1-.41-.21.7.7,0,0,1-.09-.54l11.06-36.54A.91.91,0,0,1,171,56l6.83-.78a.39.39,0,0,1,.4.21.54.54,0,0,1,0,.55l-.79,2.8a14.27,14.27,0,0,1,3.27-3,10.64,10.64,0,0,1,2.77-1.37A20.27,20.27,0,0,1,186.2,54,5.72,5.72,0,0,1,191,55.42a6.58,6.58,0,0,1,2.09,4.42,17.63,17.63,0,0,1-.55,5.78q-2.77,9-3.75,12.8a19,19,0,0,0-.84,5.36q.15,1.78,1.35,1.65,1.69-.2,5-5.08A66.26,66.26,0,0,0,200.38,69c.09-.27.23-.32.41-.15l2,2.08a.59.59,0,0,1,.05.6A95,95,0,0,1,198,81.79a23.8,23.8,0,0,1-4.37,5.86,14.45,14.45,0,0,1-3.54,2.45,12.41,12.41,0,0,1-3.42.84,4.94,4.94,0,0,1-4.34-1.46,8.09,8.09,0,0,1-2-5.14" transform="translate(0 0)"/><path class="cls-3" d="M29.9,125q-7.57-1.45-12.07-5.23t-4.72-8c-.1-1.71,5.31-6.68,5.34-6.07a15.82,15.82,0,0,0,3.6,8.7,17,17,0,0,0,9.63,6,53.68,53.68,0,0,1,11.76-17.2Q50.6,96.36,57.91,96a10.56,10.56,0,0,1,4.15.62,8.34,8.34,0,0,1,3.72,2.89,9.35,9.35,0,0,1,1.85,5.38,13.16,13.16,0,0,1-1.72,7,22.56,22.56,0,0,1-5.4,6.49,29.85,29.85,0,0,1-8.78,4.95,37.18,37.18,0,0,1-11.4,2.33c-.58,0-1.26,0-2,0a51.22,51.22,0,0,0-2.94,19.65q.49,8.91,3.83,13.61c2.24,3.14,4.82,4.63,7.77,4.48q5.45-.27,10.59-5.32a46,46,0,0,0,9.31-14c.08-.19,2.78-5.34,2.94-5.16l-1,7.1a.45.45,0,0,1,.1.54q-4.87,11.94-10.71,18.21t-13.39,6.66q-7.89.41-12.78-6.52t-5.54-19a52.87,52.87,0,0,1,3.37-21m28.64-24.27c-2.66.14-5.78,2.13-9.35,6a50.52,50.52,0,0,0-9.1,14.44,25,25,0,0,0,8.6-2.18,23.86,23.86,0,0,0,6.78-4.44A22,22,0,0,0,59.68,109a10.75,10.75,0,0,0,1.4-5.55,3.27,3.27,0,0,0-.72-2,2.09,2.09,0,0,0-1.82-.74" transform="translate(0 0)"/><path class="cls-3" d="M126.34,86.33a95.09,95.09,0,0,1-6.08,10.27,24.42,24.42,0,0,1-5.12,5.7,13.85,13.85,0,0,1-4,2.18,13.43,13.43,0,0,1-3.75.48,5.43,5.43,0,0,1-4.48-2.08,8.9,8.9,0,0,1-1.65-5.69,19.72,19.72,0,0,1,.69-5.27q.69-2.51,3.24-9,4.57-12.34,1.56-12.88-1.83,0-4.89,2.87a32.67,32.67,0,0,0-6,8.31l-9.23,23.09a.91.91,0,0,1-.83.64H78.53a.44.44,0,0,1-.41-.27.77.77,0,0,1-.05-.58L102.57,43a1,1,0,0,1,.92-.74h7.22a.45.45,0,0,1,.41.26.8.8,0,0,1,0,.59l-10.7,26.71a13.13,13.13,0,0,1,3.8-2.87,11,11,0,0,1,3.1-1.12,20.81,20.81,0,0,1,2.88-.16,6.27,6.27,0,0,1,4.94,2.07A7.26,7.26,0,0,1,117,72.71a18.73,18.73,0,0,1-1.1,6.07Q112.17,88,110.8,91.92a19.69,19.69,0,0,0-1.37,5.59c0,1.27.43,1.91,1.28,1.91,1.22,0,3.15-1.59,5.81-4.79A65.72,65.72,0,0,0,124,83.25q.18-.33.45,0l1.92,2.44a.61.61,0,0,1,0,.64" transform="translate(0 0)"/><path class="cls-3" d="M92.83,141.23A61.2,61.2,0,0,1,89.36,148a15.52,15.52,0,0,1-3,3.8,8.88,8.88,0,0,1-2.44,1.54,8.55,8.55,0,0,1-2.36.44,3.43,3.43,0,0,1-2.92-1.15,5.65,5.65,0,0,1-1.26-3.55,12.43,12.43,0,0,1,.24-3.36q.34-1.62,1.72-5.83,2.43-8,.5-8.22c-.77,0-1.77.71-3,2a20.74,20.74,0,0,0-3.49,5.49l-5,15a.56.56,0,0,1-.5.43l-4.64.28a.28.28,0,0,1-.27-.15.52.52,0,0,1,0-.37l13.24-39.66a.59.59,0,0,1,.55-.51l4.58-.27a.28.28,0,0,1,.27.15.52.52,0,0,1,0,.37L75.8,131.74a8.59,8.59,0,0,1,2.3-2A7.2,7.2,0,0,1,80,129a12.4,12.4,0,0,1,1.82-.21,4,4,0,0,1,3.21,1.13,4.61,4.61,0,0,1,1.34,3.07,12,12,0,0,1-.46,3.89c-1.36,4-2.27,6.85-2.76,8.53a12.56,12.56,0,0,0-.66,3.59c0,.81.35,1.2.89,1.17.77-.05,1.94-1.13,3.5-3.26a41.9,41.9,0,0,0,4.3-7.5c.06-.14.16-.15.29,0l1.31,1.48a.4.4,0,0,1,0,.41" transform="translate(0 0)"/><path class="cls-3" d="M116.57,138.28A63,63,0,0,1,113.1,145a15.72,15.72,0,0,1-3,3.8,8.71,8.71,0,0,1-2.44,1.53,8.25,8.25,0,0,1-2.36.45,3.43,3.43,0,0,1-2.92-1.15,5.65,5.65,0,0,1-1.26-3.55,12.4,12.4,0,0,1,.24-3.36c.22-1.08.8-3,1.72-5.83q2.43-8,.5-8.22c-.78,0-1.77.71-3,2a21,21,0,0,0-3.48,5.49l-5,15a.55.55,0,0,1-.49.43l-4.64.28a.27.27,0,0,1-.27-.16.45.45,0,0,1-.05-.36L99.86,111.7a.6.6,0,0,1,.56-.5l4.57-.28a.31.31,0,0,1,.28.16.52.52,0,0,1,0,.37l-5.78,17.34a8.49,8.49,0,0,1,2.3-2,7.3,7.3,0,0,1,1.93-.82,12.4,12.4,0,0,1,1.82-.21,4,4,0,0,1,3.21,1.13,4.59,4.59,0,0,1,1.34,3.07,11.79,11.79,0,0,1-.47,3.89c-1.35,4-2.27,6.85-2.75,8.52a12.67,12.67,0,0,0-.66,3.6c0,.81.34,1.2.89,1.17q1.16-.07,3.5-3.26a41.29,41.29,0,0,0,4.29-7.5c.07-.14.17-.15.29,0l1.31,1.48a.38.38,0,0,1,0,.41" transform="translate(0 0)"/><path class="cls-3" d="M147,115.16a3.63,3.63,0,0,1,4.23,2.58q1.2-4,5.18-16.85a.55.55,0,0,1,.51-.43l4.26-.47a.25.25,0,0,1,.25.13.33.33,0,0,1,0,.28q-6.67,21.76-7.92,26.27a21.55,21.55,0,0,0-1.08,6.58c.06.75.36,1.1.9,1,.83-.09,1.73-.89,2.72-2.42a61.4,61.4,0,0,0,3.78-7.41q.09-.19.27,0t.63.66c.3.33.5.55.62.66a.37.37,0,0,1,0,.38q-1.68,4.05-2.91,6.43a16.55,16.55,0,0,1-2.32,3.58,6.62,6.62,0,0,1-1.92,1.57,7.11,7.11,0,0,1-2.16.52,3.36,3.36,0,0,1-3-1.26,6,6,0,0,1-1.46-3.58v-.06q-2.8,5.68-6.1,6a3.89,3.89,0,0,1-3.66-1.5A8.87,8.87,0,0,1,136.3,133a17.46,17.46,0,0,1,.51-5.41,27,27,0,0,1,2.05-5.64,15,15,0,0,1,3.52-4.6,8.36,8.36,0,0,1,4.62-2.18m2.91,7.09a8.06,8.06,0,0,0-.62-3.6c-.43-.88-1-1.29-1.67-1.21-1.12.12-2.22,1.12-3.3,3a24.22,24.22,0,0,0-2.47,6.41,19.91,19.91,0,0,0-.66,6,3.29,3.29,0,0,0,.55,1.74,1.11,1.11,0,0,0,1,.55c.86-.09,1.82-1,2.88-2.69a41.51,41.51,0,0,0,3.22-6.65q.38-1.5,1-3.6" transform="translate(0 0)"/><path class="cls-3" d="M130.75,230.42a8.09,8.09,0,0,1-7.32-2.21q-2.75-2.82-3.59-8.72a26.73,26.73,0,0,1,1-11.67,26.17,26.17,0,0,1,5.59-10.15,13.54,13.54,0,0,1,8.2-4.78c3.16-.42,5.69.32,7.57,2.23a13.7,13.7,0,0,1,3.56,7.91,28.16,28.16,0,0,1-2.35,15q4.58.44,8.6-10.89c.07-.26.2-.31.38-.14a20,20,0,0,1,2,1.83.71.71,0,0,1,.09.65c-.39,1.07-.75,2-1.07,2.77s-.74,1.69-1.25,2.74a17.18,17.18,0,0,1-1.51,2.64,25.81,25.81,0,0,1-1.77,2.19,7.79,7.79,0,0,1-2.09,1.71,7.09,7.09,0,0,1-2.47.77,6.47,6.47,0,0,1-2.87-.29q-4.56,7.57-10.67,8.4M136.1,197c-1.39.18-2.88,1.53-4.46,4a31.57,31.57,0,0,0-3.74,9.56,28.91,28.91,0,0,0-.65,10.87,10.53,10.53,0,0,0,1.32,4.07c.64,1,1.36,1.48,2.17,1.37q3-.4,5.9-6.8a3.45,3.45,0,0,1-.66-1.72,6.21,6.21,0,0,1,.72-3.87,4.12,4.12,0,0,1,2.41-2.28,29,29,0,0,0,.45-10q-.81-5.61-3.46-5.25" transform="translate(0 0)"/><path class="cls-3" d="M194,208.32a8.09,8.09,0,0,1-7.32-2.21q-2.74-2.82-3.59-8.72a26.76,26.76,0,0,1,1-11.67,26.3,26.3,0,0,1,5.59-10.15,13.54,13.54,0,0,1,8.21-4.77,8.47,8.47,0,0,1,7.57,2.22,13.69,13.69,0,0,1,3.55,7.92,28,28,0,0,1-2.35,15,44.07,44.07,0,0,1-2,4q-4.58,7.57-10.68,8.39m5.35-33.43c-1.39.19-2.88,1.53-4.45,4a31.53,31.53,0,0,0-3.75,9.57,29.06,29.06,0,0,0-.65,10.86,10.48,10.48,0,0,0,1.32,4.07c.64,1,1.37,1.49,2.17,1.38,2-.28,4-2.54,5.9-6.81a44.37,44.37,0,0,0,2.48-7.86,29.24,29.24,0,0,0,.45-10q-.81-5.62-3.47-5.26" transform="translate(0 0)"/><path class="cls-3" d="M163.55,185c2.91-.72,5,.21,6.41,2.8q.87-5.79,3.82-24.41a.81.81,0,0,1,.62-.7l5.84-1.44a.35.35,0,0,1,.38.13.46.46,0,0,1,.13.38q-5,31.53-5.77,38t-.18,9.35c.24,1,.72,1.46,1.46,1.28q1.69-.42,3.3-3.87a86,86,0,0,0,3.78-11c.06-.2.18-.23.37-.09s.52.4,1,.8.81.66,1,.8a.5.5,0,0,1,.12.52q-1.54,5.94-2.77,9.49a22.69,22.69,0,0,1-2.51,5.41A9.31,9.31,0,0,1,178.2,215a10.36,10.36,0,0,1-2.9,1.13,4.74,4.74,0,0,1-4.37-1.2,8.45,8.45,0,0,1-2.75-4.71l0-.09q-2.76,8.45-7.27,9.56a5.47,5.47,0,0,1-5.39-1.4,12.64,12.64,0,0,1-3.27-6.49,24.18,24.18,0,0,1-.36-7.63,37.41,37.41,0,0,1,1.72-8.23,20.62,20.62,0,0,1,4-7,11.57,11.57,0,0,1,6-3.9m5.47,9.33a11.29,11.29,0,0,0-1.58-4.91c-.78-1.14-1.64-1.6-2.57-1.37q-2.3.57-4,4.82a33.29,33.29,0,0,0-2.16,9.39,27.6,27.6,0,0,0,.29,8.5,4.75,4.75,0,0,0,1.11,2.33,1.63,1.63,0,0,0,1.58.57c1.18-.29,2.33-1.72,3.47-4.28a60,60,0,0,0,3.15-9.86q.21-2.16.69-5.19" transform="translate(0 0)"/><path class="cls-3" d="M187.2,139.06c-2.43-.17-4.51-1.86-6.26-5.07a20.48,20.48,0,0,1-2.12-11.52,38.25,38.25,0,0,1,2-9.47,42.06,42.06,0,0,1,11.55-17.34A28.39,28.39,0,0,1,213,88.76a20.07,20.07,0,0,1,6.82,1.7,19.41,19.41,0,0,1,6.11,4.42,27.25,27.25,0,0,1,4.85,7.12,35.76,35.76,0,0,1,2.92,10.26,59.81,59.81,0,0,1,.38,13.39A78.86,78.86,0,0,1,230.7,144a45.55,45.55,0,0,1-6.34,13.21,27.32,27.32,0,0,1-8.13,7.58,15.41,15.41,0,0,1-9,2.25,7.75,7.75,0,0,1-5.81-2.89,7.3,7.3,0,0,1-1.93-5.06,4.1,4.1,0,0,1,.29-1.3c.16-.35.34-.51.55-.5a4.76,4.76,0,0,1,.64.92A6.54,6.54,0,0,0,202.9,160a6.78,6.78,0,0,0,3.35,1.06,10,10,0,0,0,7-2.49,26.54,26.54,0,0,0,6.35-7.7,54.32,54.32,0,0,0,4.93-12.34,81.47,81.47,0,0,0,2.68-15.82q1.09-14.55-2.68-21.9T213.14,93A19.28,19.28,0,0,0,204,94.52a22.52,22.52,0,0,0-7.43,5.14,38.18,38.18,0,0,0-5.46,7.37,40,40,0,0,0-3.6,8.29,37.42,37.42,0,0,0-1.51,7.85,13.33,13.33,0,0,0,.64,6,3.34,3.34,0,0,0,2.9,2.39q2.61.19,5-3.11a12.58,12.58,0,0,0,2.58-6.21c0-.65.32-.69.84-.14a3.86,3.86,0,0,1,1,3.29,18,18,0,0,1-3.81,9.34q-3.45,4.69-7.85,4.38m35.4-36.26q-2.17-.15-4.57,3.24a43.63,43.63,0,0,0-4.61,8.9q-2.21,5.5-4.54,12.27t-4.79,13.47q-2.46,6.7-5,12.24a37.34,37.34,0,0,1-5.38,8.9c-1.92,2.24-3.83,3.29-5.75,3.16q-2.47-.18-4.07-3.31a11.38,11.38,0,0,1-1.38-6,7.18,7.18,0,0,1,.37-1.93c.19-.5.39-.75.6-.74a2.18,2.18,0,0,1,.41.52,1.1,1.1,0,0,0,.79.55,5.81,5.81,0,0,0,2.4-.33,8.49,8.49,0,0,0,2.79-2.14,27.33,27.33,0,0,0,3.5-4.83,94.6,94.6,0,0,0,4.4-8.77q2.58-5.67,5.6-13.56,5-13,9.28-18.72t8.42-5.41a1.77,1.77,0,0,1,1.73,1.68c.13.59,0,.88-.25.86" transform="translate(0 0)"/><path class="cls-3" d="M238.66,153.35a3.75,3.75,0,0,1-3.11-1.61,6.93,6.93,0,0,1-1.4-4.17,23.8,23.8,0,0,1,.8-6.11q.88-3.74,4.65-15.69a.61.61,0,0,1,.57-.48l4.65-.11a.27.27,0,0,1,.26.18.61.61,0,0,1,0,.42q-4,12.57-4.95,16.43a23.37,23.37,0,0,0-.9,5.76c0,.92.32,1.37.86,1.36s1.64-1.09,3.06-3.22a58.72,58.72,0,0,0,4.55-8.61c.11-.15.21-.16.29,0s.55.73,1.29,1.73a.42.42,0,0,1,.07.46c-1.32,3.09-2.49,5.59-3.49,7.47a17.07,17.07,0,0,1-2.82,4.13,7.71,7.71,0,0,1-2.21,1.67,6.53,6.53,0,0,1-2.22.4" transform="translate(0 0)"/><path class="cls-3" d="M102.74,166.09c.55-14.07,28-18.92,29.07-18.91,2-1.51,11.59-5.3,12-1.89.53,4.27-8.69,5.27-10.47,5.26a28.25,28.25,0,0,0-3,4.91c-8.24,16.76-14.29,52.76-16.21,58.13-12.81,35.77-41.8,30.19-31.67,9.44,6.93-14.19,54.28-36.15,61.33-49.33.72-1.34,2.26-2.31,2.28-1.15.11,8.32-55.07,36.92-61.59,52.76-5.06,12.27,6.27,11.71,12.34,7.31,7.1-5.13,10.68-14.14,12.41-23.54.85-4.58,6.34-29.14,7.84-35.11,2.57-10,7.22-18.76,11.28-23.58-4.78-.2-20,5.58-20.78,14.5-.85,9.7,6.15,11.69,3.11,11.9a10.53,10.53,0,0,1-8-10.7" transform="translate(0 0)"/><path class="cls-3" d="M230.63,50q.94,4.48-2.52,9a28.42,28.42,0,0,1-8.34,7.34,35.56,35.56,0,0,1-9.39,3.9,15.92,15.92,0,0,0,.32,3.57,8.56,8.56,0,0,0,2.23,4.5,4.42,4.42,0,0,0,4.2,1.1,16.89,16.89,0,0,0,4-1.35,29.6,29.6,0,0,0,4.89-3,25.77,25.77,0,0,0,5.58-6A42.78,42.78,0,0,0,236.37,60c.08-.29.25-.36.5-.2l2.54,1.89a.49.49,0,0,1,.12.6,59.5,59.5,0,0,1-4.76,9.85,37.27,37.27,0,0,1-4.86,6.56,23.88,23.88,0,0,1-5.08,4,24.53,24.53,0,0,1-4.53,2.18,36.68,36.68,0,0,1-4.09,1q-6.09,1.2-9.93-2a15.74,15.74,0,0,1-5.07-9.13,23,23,0,0,1,.94-11.91,29.42,29.42,0,0,1,6.91-11.42,20.08,20.08,0,0,1,10.69-6.13,13,13,0,0,1,7.3.28A5.8,5.8,0,0,1,230.63,50m-9.26-1.2q-3.31.64-6.5,5.93a32.75,32.75,0,0,0-4.23,11.62q9-4.24,11.73-11.73c1.11-2.92,1.1-4.82,0-5.71a1.28,1.28,0,0,0-1-.11" transform="translate(0 0)"/><path class="cls-4" d="M219.46,199.73c-17.27,28-39,49.51-72.8,55.92-16.47,3.13-43.54-15.34-40.16-19.22,3.19-3.65,30.49,22.22,35.43,9.37,1.87-4.87-13.84-1.58-14.85-3-.67-.92,0-3.47,4.61-5.58s16.68-1.57,26.81-1.42c24.42.36,46.45-20.13,62.11-42.83,1.41-2,2.52-3.54,3.15-3.27,1.53.68-3.42,8.55-4.3,10" transform="translate(0 0)"/><path class="cls-3" d="M165.15,135.13a5.52,5.52,0,0,1-5-1.5,10.44,10.44,0,0,1-2.43-5.91,18.07,18.07,0,0,1,.67-7.91,17.63,17.63,0,0,1,3.78-6.88,9.18,9.18,0,0,1,5.56-3.24,5.76,5.76,0,0,1,5.13,1.51,9.25,9.25,0,0,1,2.41,5.37,19,19,0,0,1-1.59,10.16,26.26,26.26,0,0,1-1.33,2.7c-2.06,3.43-4.47,5.32-7.23,5.7m3.62-22.66c-.94.12-2,1-3,2.73a21.42,21.42,0,0,0-2.54,6.48,19.72,19.72,0,0,0-.44,7.37,7.06,7.06,0,0,0,.9,2.75c.43.7.92,1,1.46.94q2.07-.28,4-4.61a31.44,31.44,0,0,0,1.67-5.34,19.86,19.86,0,0,0,.31-6.76c-.37-2.54-1.15-3.72-2.35-3.56" transform="translate(0 0)"/><path class="cls-3" d="M73.16,180s-2.45-2-1-4.23c1.68-2.6,3.77.93,3.77.93s.81-3,2.7-2.9,2.58,1.83,1.51,4.14a22.78,22.78,0,0,1-3.84,4.8Z" transform="translate(0 0)"/><path class="cls-4" d="M101.72,185.12c.52-1.15-4.4-1-7.33-2-5.78-2-9.47-5.23-6.23-12.1,1.19-2.54,4-6,3.11-6.84C88.78,162,78.54,187.71,78,199.12c-.1,1.93-.24,4.62,1,4.53.44,0,.35-1.06.36-1.38.31-11.91,8.77-16.81,19.94-16.88.8,0,2.15.41,2.47-.27" transform="translate(0 0)"/><path class="cls-4" d="M93.7,171.38a3.48,3.48,0,1,1-4.07,2.76,3.47,3.47,0,0,1,4.07-2.76" transform="translate(0 0)"/><path class="cls-4" d="M87.91,171c1-2.59,3.91-6.37,3.35-6.81-2.6-2.09-12.72,23.51-13.28,34.92" transform="translate(0 0)"/><path class="cls-4" d="M76.25,185.87c-1.17-.5-2.34,3.73-4.75,5.71-4.77,3.92-9.45,5.45-13.69-.93-1.56-2.35-3.05-6.61-4.28-6.24-3.23,1,11.65,20.78,21.52,29.09,1.49,1.25,3.39,2.73,4,1.63.19-.39-.46-1.37-.63-1.64-4.09-6.05-6-13.54-2.39-24.92.24-.77.87-2.45.27-2.7" transform="translate(0 0)"/><path class="cls-4" d="M61,186.05a3.5,3.5,0,1,1,.26,4.95,3.51,3.51,0,0,1-.26-4.95" transform="translate(0 0)"/><path class="cls-4" d="M57.66,190.86c-1.69-2.27-3.46-6.7-4.13-6.45C50.37,185.56,65.41,206.56,75,213" transform="translate(0 0)"/><path class="cls-4" d="M225,165.49c.37-.78,2.42,1.91,4.24,3,3.59,2.17,6.88,2.74,9.09-2,.82-1.75,1.39-4.77,2.25-4.65,2.26.34-5.74,15.19-11.54,21.79-.87,1-2,2.18-2.48,1.5-.18-.25.15-1,.26-1.17,3.71-6.43,3.94-11.11-.89-17.07-.35-.42-1.15-1-.93-1.42" transform="translate(0 0)"/><path class="cls-4" d="M235.76,163.72a2.37,2.37,0,0,0-3.35.31,2.4,2.4,0,0,0,.32,3.37,2.37,2.37,0,0,0,3.35-.32,2.4,2.4,0,0,0-.32-3.36" transform="translate(0 0)"/><path class="cls-4" d="M238.48,166.63c.9-1.7,1.65-4.86,2.12-4.77,2.24.47-5.76,16.15-11.52,21.44" transform="translate(0 0)"/><path class="cls-3" d="M198.42,26.27a2.32,2.32,0,1,1-2.32,2.31,2.31,2.31,0,0,1,2.32-2.31" transform="translate(0 0)"/><path class="cls-3" d="M207.34,18.15c-.16,0-.14.19-.17.42a20.95,20.95,0,0,0,15.27,22.92.21.21,0,0,0,.18-.38c-5.11-3.53-6.3-7.87-6.56-9.37a.59.59,0,0,1,.49-.69,5.56,5.56,0,0,1,4.26,1.3.22.22,0,0,0,.34-.26c-3.53-8.44-13.32-2.34-13.75-13.45,0-.23.08-.46-.06-.49" transform="translate(0 0)"/><path class="cls-3" d="M211.11,19.39a2.45,2.45,0,1,0,3.19,1.34,2.44,2.44,0,0,0-3.19-1.34" transform="translate(0 0)"/><path class="cls-3" d="M262.45,134.16c-.11-.17-.23-.16-.36,0a70.56,70.56,0,0,1-5.09,9.91c-1.36,2-2.59,3.06-3.71,3.12-.68,0-2.32-.49-2.4-1.54q-.22-2.85,1.46-9c1.12-4.07,1.58-5.71,8-25.23,9.52-29,9.41-96.76-44.84-109.51-38.71-9.1-55.54,15.4-54.8,31.37.5,11,14.48,24.15,33.25,9.37,2.57-2.27,13.55-10.29,10.58-23.34-.15-.69-.39-1.25-.73-1s0,.9,0,1.45C205.34,34.31,192.25,42.89,184,43c-11.28.1-14.71-22.55,5.78-29.54,48.73-16.62,79.34,47.82,67.18,92.16-3.17,11.57-8.87,26.63-9.92,30.61a30,30,0,0,0-1.33,9.35,8.79,8.79,0,0,0,2,5,4.75,4.75,0,0,0,4,2,9.06,9.06,0,0,0,2.93-.56,8.43,8.43,0,0,0,2.59-2,21,21,0,0,0,3.14-4.75q1.67-3.18,3.94-8.62a.43.43,0,0,0-.11-.52c-1-1.1-1.53-1.74-1.69-1.91" transform="translate(0 0)"/></g></svg>